<svg width="190" height="67" viewBox="0 0 190 67" fill="none" xmlns="http://www.w3.org/2000/svg">
<path d="M32.896 12.536L27.04 35H20.416L16.832 20.216L13.12 35H6.496L0.8 12.536H6.656L9.888 28.888L13.888 12.536H19.904L23.744 28.888L27.008 12.536H32.896ZM37.1123 26.04C37.1123 24.2053 37.4536 22.5947 38.1363 21.208C38.8403 19.8213 39.7896 18.7547 40.9843 18.008C42.1789 17.2613 43.5123 16.888 44.9843 16.888C46.2429 16.888 47.3416 17.144 48.2803 17.656C49.2403 18.168 49.9763 18.84 50.4883 19.672V17.144H55.9603V35H50.4883V32.472C49.9549 33.304 49.2083 33.976 48.2483 34.488C47.3096 35 46.2109 35.256 44.9523 35.256C43.5016 35.256 42.1789 34.8827 40.9843 34.136C39.7896 33.368 38.8403 32.2907 38.1363 30.904C37.4536 29.496 37.1123 27.8747 37.1123 26.04ZM50.4883 26.072C50.4883 24.7067 50.1043 23.6293 49.3363 22.84C48.5896 22.0507 47.6723 21.656 46.5843 21.656C45.4963 21.656 44.5683 22.0507 43.8003 22.84C43.0536 23.608 42.6803 24.6747 42.6803 26.04C42.6803 27.4053 43.0536 28.4933 43.8003 29.304C44.5683 30.0933 45.4963 30.488 46.5843 30.488C47.6723 30.488 48.5896 30.0933 49.3363 29.304C50.1043 28.5147 50.4883 27.4373 50.4883 26.072ZM67.951 20.12C68.591 19.1387 69.391 18.3707 70.351 17.816C71.311 17.24 72.3777 16.952 73.551 16.952V22.744H72.047C70.6817 22.744 69.6577 23.0427 68.975 23.64C68.2923 24.216 67.951 25.24 67.951 26.712V35H62.479V17.144H67.951V20.12ZM84.1985 20.12C84.8385 19.1387 85.6385 18.3707 86.5985 17.816C87.5585 17.24 88.6252 16.952 89.7985 16.952V22.744H88.2945C86.9292 22.744 85.9052 23.0427 85.2225 23.64C84.5398 24.216 84.1985 25.24 84.1985 26.712V35H78.7265V17.144H84.1985V20.12ZM97.726 15.288C96.766 15.288 95.9767 15.0107 95.358 14.456C94.7607 13.88 94.462 13.176 94.462 12.344C94.462 11.4907 94.7607 10.7867 95.358 10.232C95.9767 9.656 96.766 9.368 97.726 9.368C98.6647 9.368 99.4327 9.656 100.03 10.232C100.649 10.7867 100.958 11.4907 100.958 12.344C100.958 13.176 100.649 13.88 100.03 14.456C99.4327 15.0107 98.6647 15.288 97.726 15.288ZM100.446 17.144V35H94.974V17.144H100.446ZM115.1 35.256C113.35 35.256 111.772 34.8827 110.364 34.136C108.977 33.3893 107.878 32.3227 107.068 30.936C106.278 29.5493 105.884 27.928 105.884 26.072C105.884 24.2373 106.289 22.6267 107.1 21.24C107.91 19.832 109.02 18.7547 110.428 18.008C111.836 17.2613 113.414 16.888 115.164 16.888C116.913 16.888 118.492 17.2613 119.9 18.008C121.308 18.7547 122.417 19.832 123.228 21.24C124.038 22.6267 124.444 24.2373 124.444 26.072C124.444 27.9067 124.028 29.528 123.196 30.936C122.385 32.3227 121.265 33.3893 119.836 34.136C118.428 34.8827 116.849 35.256 115.1 35.256ZM115.1 30.52C116.145 30.52 117.03 30.136 117.756 29.368C118.502 28.6 118.876 27.5013 118.876 26.072C118.876 24.6427 118.513 23.544 117.788 22.776C117.084 22.008 116.209 21.624 115.164 21.624C114.097 21.624 113.212 22.008 112.508 22.776C111.804 23.5227 111.452 24.6213 111.452 26.072C111.452 27.5013 111.793 28.6 112.476 29.368C113.18 30.136 114.054 30.52 115.1 30.52ZM135.379 20.12C136.019 19.1387 136.819 18.3707 137.779 17.816C138.739 17.24 139.805 16.952 140.979 16.952V22.744H139.475C138.109 22.744 137.085 23.0427 136.403 23.64C135.72 24.216 135.379 25.24 135.379 26.712V35H129.907V17.144H135.379V20.12Z" fill="#FFC300"/>
<path d="M40.4242 55.014C38.5435 55.014 36.8798 54.5696 35.4332 53.681C33.9865 52.7716 32.8602 51.4903 32.0542 49.837C31.2482 48.163 30.8452 46.179 30.8452 43.885C30.8452 41.6736 31.2482 39.7206 32.0542 38.026C32.8808 36.3106 34.0382 34.9776 35.5262 34.027C37.0348 33.0556 38.7915 32.57 40.7962 32.57C41.8295 32.57 42.7698 32.6733 43.6172 32.88C44.4645 33.066 45.2602 33.3346 46.0042 33.686L45.1052 36.166C44.4645 35.856 43.8032 35.608 43.1212 35.422C42.4598 35.236 41.6745 35.143 40.7652 35.143C39.4425 35.143 38.2542 35.484 37.2002 36.166C36.1668 36.848 35.3505 37.8296 34.7512 39.111C34.1518 40.3923 33.8522 41.9423 33.8522 43.761C33.8522 45.497 34.1415 47.016 34.7202 48.318C35.3195 49.62 36.1358 50.6326 37.1692 51.356C38.2232 52.0793 39.4218 52.441 40.7652 52.441C41.7778 52.441 42.6562 52.317 43.4002 52.069C44.1442 51.821 44.8675 51.5006 45.5702 51.108L46.4692 53.557C45.7045 53.9703 44.8262 54.3216 43.8342 54.611C42.8628 54.8796 41.7262 55.014 40.4242 55.014ZM57.5819 55.014C56.0526 55.014 54.6783 54.6626 53.4589 53.96C52.2396 53.2366 51.2786 52.2446 50.5759 50.984C49.8939 49.7026 49.5529 48.2353 49.5529 46.582C49.5529 44.846 49.9043 43.3476 50.6069 42.087C51.3096 40.8263 52.2706 39.855 53.4899 39.173C54.7093 38.491 56.0733 38.15 57.5819 38.15C59.0906 38.15 60.4443 38.491 61.6429 39.173C62.8623 39.855 63.8233 40.8263 64.5259 42.087C65.2493 43.327 65.6109 44.8046 65.6109 46.52C65.6109 48.2353 65.2596 49.7336 64.5569 51.015C63.8543 52.2756 62.8933 53.2573 61.6739 53.96C60.4753 54.6626 59.1113 55.014 57.5819 55.014ZM57.5819 52.534C59.2146 52.534 60.4856 51.9863 61.3949 50.891C62.3043 49.775 62.7589 48.3386 62.7589 46.582C62.7589 45.5073 62.5316 44.5256 62.0769 43.637C61.6223 42.7276 61.0023 42.0043 60.2169 41.467C59.4523 40.909 58.5739 40.63 57.5819 40.63C55.9493 40.63 54.6783 41.1673 53.7689 42.242C52.8596 43.3166 52.4049 44.7426 52.4049 46.52C52.4049 47.5946 52.6323 48.597 53.0869 49.527C53.5416 50.4363 54.1513 51.17 54.9159 51.728C55.7013 52.2653 56.5899 52.534 57.5819 52.534ZM70.8703 54.642V38.522H73.5673V41.219C74.1459 40.351 74.8796 39.6276 75.7683 39.049C76.6776 38.4496 77.7523 38.15 78.9923 38.15C80.8109 38.15 82.1646 38.6976 83.0533 39.793C83.9626 40.8883 84.4173 42.335 84.4173 44.133V54.642H81.6273V44.443C81.6273 43.2856 81.3483 42.3556 80.7903 41.653C80.2529 40.9503 79.4986 40.599 78.5273 40.599C77.5766 40.599 76.6776 40.94 75.8303 41.622C74.9829 42.2833 74.2596 43.0686 73.6603 43.978V54.642H70.8703ZM90.766 54.642V38.522H93.463V41.219C94.0417 40.351 94.7753 39.6276 95.664 39.049C96.5733 38.4496 97.648 38.15 98.888 38.15C100.707 38.15 102.06 38.6976 102.949 39.793C103.858 40.8883 104.313 42.335 104.313 44.133V54.642H101.523V44.443C101.523 43.2856 101.244 42.3556 100.686 41.653C100.149 40.9503 99.3943 40.599 98.423 40.599C97.4723 40.599 96.5733 40.94 95.726 41.622C94.8787 42.2833 94.1553 43.0686 93.556 43.978V54.642H90.766ZM117.11 55.014C114.795 55.014 112.956 54.2803 111.592 52.813C110.248 51.325 109.577 49.248 109.577 46.582C109.577 44.97 109.876 43.5336 110.476 42.273C111.096 40.9916 111.953 39.9893 113.049 39.266C114.144 38.522 115.415 38.15 116.862 38.15C118.412 38.15 119.693 38.491 120.706 39.173C121.739 39.8343 122.514 40.7333 123.031 41.87C123.547 43.0066 123.806 44.257 123.806 45.621C123.806 46.3443 123.775 47.047 123.713 47.729H112.429C112.615 49.2376 113.142 50.4156 114.01 51.263C114.878 52.1103 116.025 52.534 117.451 52.534C118.381 52.534 119.218 52.441 119.962 52.255C120.706 52.0483 121.419 51.79 122.101 51.48L122.752 53.867C122.008 54.1976 121.171 54.4663 120.241 54.673C119.311 54.9003 118.267 55.014 117.11 55.014ZM112.398 45.466H121.233C121.233 43.8953 120.84 42.6863 120.055 41.839C119.269 40.9916 118.184 40.568 116.8 40.568C115.601 40.568 114.609 40.9916 113.824 41.839C113.038 42.6656 112.563 43.8746 112.398 45.466ZM135.584 55.014C134.055 55.014 132.711 54.6626 131.554 53.96C130.417 53.2366 129.539 52.2446 128.919 50.984C128.299 49.7026 127.989 48.2353 127.989 46.582C127.989 45.032 128.299 43.6163 128.919 42.335C129.56 41.0536 130.469 40.041 131.647 39.297C132.825 38.5323 134.21 38.15 135.801 38.15C136.71 38.15 137.506 38.2326 138.188 38.398C138.891 38.5633 139.562 38.801 140.203 39.111L139.366 41.467C138.787 41.1776 138.229 40.971 137.692 40.847C137.175 40.7023 136.597 40.63 135.956 40.63C134.509 40.63 133.29 41.157 132.298 42.211C131.327 43.2443 130.841 44.6806 130.841 46.52C130.841 47.636 131.048 48.6486 131.461 49.558C131.874 50.4673 132.443 51.1906 133.166 51.728C133.91 52.2653 134.778 52.534 135.77 52.534C136.555 52.534 137.227 52.4513 137.785 52.286C138.343 52.1 138.942 51.8416 139.583 51.511L140.451 53.867C139.81 54.2183 139.087 54.4973 138.281 54.704C137.496 54.9106 136.597 55.014 135.584 55.014ZM150.888 55.014C149.338 55.014 148.108 54.5076 147.199 53.495C146.31 52.4616 145.866 50.9943 145.866 49.093V41.529H143.076V39.111H145.928L146.517 34.027H148.656V39.111H153.12V41.529H148.656V49.31C148.656 50.5086 148.904 51.3456 149.4 51.821C149.917 52.2963 150.526 52.534 151.229 52.534C151.746 52.534 152.231 52.4513 152.686 52.286C153.161 52.1206 153.595 51.9243 153.988 51.697L154.763 53.929C154.35 54.177 153.792 54.4146 153.089 54.642C152.386 54.89 151.653 55.014 150.888 55.014Z" fill="#0D0D0D"/>
</svg>
